<svg version="1.2" xmlns="http://www.w3.org/2000/svg" viewBox="0 0 1002 100" width="1002" height="100">
	<title>logo</title>
	<style>
		.s0 { fill: #ffffff } 
	</style>
	<g>
		<g id="_Слой_1">
			<g>
				<path class="s0" d="m108.5 86.9v-70.9h13.4v70.9z"/>
				<path class="s0" d="m215.8 38.9q0 3.7-1.2 6.6c-0.8 1.9-1.9 3.6-3.2 5-1.4 1.4-3 2.6-4.9 3.6-1.9 1-3.9 1.8-6.1 2.4 1.4 0.6 2.6 1.2 3.6 1.9 1 0.7 1.9 1.4 2.6 2.3 0.7 0.9 1.4 1.9 1.9 3 0.5 1.1 1 2.4 1.5 3.8l3.1 9.8c0.6 1.9 1.2 3.6 2 5.3 0.8 1.7 1.6 3.1 2.6 4.2h-14.3q-1.2-1.5-2.1-3.6c-0.6-1.4-1.1-2.9-1.6-4.6l-3.4-10.5c-0.9-2.9-2.6-5.1-5-6.4-2.5-1.3-5.6-2.1-9.4-2.3h-23.4v27.4h-13.3v-70.9h43.9c8.6 0 15.2 1.8 19.8 5.5 4.5 3.6 6.8 8.9 6.8 15.7v1.7zm-13.5-1.9q0-2.4-0.6-4.5c-0.4-1.4-1.2-2.6-2.2-3.7-1-1.1-2.4-1.9-4.2-2.6-1.8-0.6-3.9-0.9-6.6-0.9h-30v24.5h26c5.8 0 10.2-1 13.1-3 3-2 4.5-4.9 4.5-8.8z"/>
				<path class="s0" d="m229.9 48.5q0-7.1 2.4-13.2 2.4-6.1 7.5-10.8c3.4-3.1 7.8-5.5 13.1-7.3 5.3-1.8 11.6-2.6 19-2.6 7.4 0 13.7 0.9 19 2.7 5.3 1.8 9.7 4.2 13.1 7.3q5.1 4.6 7.5 10.8 2.4 6.1 2.4 13.2v5.9c0 4.7-0.8 9-2.4 13.2q-2.4 6.1-7.5 10.8c-3.4 3.1-7.8 5.5-13.1 7.3-5.3 1.8-11.6 2.7-19 2.7-7.4 0-13.7-0.9-18.9-2.6-5.3-1.8-9.6-4.2-13-7.3q-5.1-4.7-7.5-10.8-2.4-6.2-2.4-13.2v-5.9zm41.9 30c4.4 0 8.4-0.5 11.9-1.6 3.5-1.1 6.5-2.7 9-4.7 2.5-2.1 4.3-4.6 5.6-7.5 1.3-2.9 1.9-6.3 1.9-9.9v-6.4c0-3.8-0.6-7.1-1.9-10.1-1.3-3-3.2-5.5-5.6-7.5-2.5-2.1-5.4-3.6-9-4.7-3.5-1.1-7.5-1.6-11.9-1.6-4.4 0-8.4 0.5-11.9 1.6-3.5 1.1-6.5 2.7-8.9 4.7-2.4 2-4.3 4.6-5.6 7.5-1.3 3-1.9 6.3-1.9 10.1v6.4c0 3.7 0.6 7 1.9 9.9 1.3 2.9 3.2 5.4 5.6 7.5 2.5 2.1 5.4 3.6 9 4.7 3.5 1.1 7.5 1.6 11.9 1.6z"/>
				<path class="s0" d="m392.2 86.9l-48.1-55.3h-0.6l0.4 3.8 0.2 51.5h-12.8v-70.9h13.9l48.3 56h0.6l-0.3-3.3-0.2-52.7h12.8v70.9z"/>
				<path class="s0" d="m485.3 26.7h-1.1l0.3 4 0.6 56.2h-12.6v-70.9h18.6l26.5 45.5 1.1 3.4h0.6l1.2-3.5 26.5-45.4h18.6v70.9h-12.6l0.6-56.2 0.3-4h-1.2l-27 49.1h-13.4l-27.1-49.1z"/>
				<path class="s0" d="m578.7 86.9l34.2-70.9h17.5l34.2 70.9h-13.8l-8.4-18.4h-41.3l-8.4 18.4h-13.8zm26.5-27.8h32.8l-15.3-33.5h-2.2z"/>
				<path class="s0" d="m741.2 67.2c0 3.4-0.8 6.5-2.3 9.1-1.5 2.6-3.8 4.8-6.7 6.6-3 1.8-6.6 3.1-10.9 4-4.3 0.9-9.3 1.4-14.9 1.4-5.6 0-11.1-0.6-15.6-1.8-4.5-1.2-8.3-2.9-11.3-5-3-2.1-5.3-4.6-6.9-7.4-1.5-2.8-2.3-5.9-2.3-9.2h12.8c0 1 0.2 2 0.5 3.1 0.3 1.1 0.8 2.2 1.5 3.2 0.7 1 1.6 2 2.8 3 1.2 0.9 2.6 1.8 4.3 2.5 1.7 0.7 3.8 1.3 6.1 1.7 2.4 0.4 5.1 0.6 8.2 0.6 3.1 0 6.9-0.3 9.6-0.8 2.7-0.5 4.9-1.3 6.6-2.3 1.7-1 3-2.2 3.8-3.6 0.8-1.4 1.2-2.9 1.2-4.6 0-1.7-0.3-3-1-4.1-0.7-1.1-1.6-2.1-2.9-3-1.3-0.8-2.9-1.5-4.7-2.1-1.9-0.5-4-1-6.4-1.4l-18.6-3.1c-7.2-1.2-12.6-3.4-16.2-6.4-3.6-3-5.4-7.3-5.4-12.8 0-5.5 0.6-5 1.7-7.4 1.1-2.4 3-4.6 5.6-6.5q3.9-2.8 10.2-4.5c4.2-1.1 9.4-1.7 15.6-1.7 6.2 0 11 0.6 15.3 1.7 4.3 1.1 7.8 2.7 10.6 4.6 2.8 2 4.9 4.4 6.4 7.1 1.5 2.8 2.3 5.8 2.6 9h-12c-0.3-1.8-0.8-3.6-1.7-5.2-0.8-1.6-2.1-3-3.8-4.2-1.7-1.2-4-2.1-6.8-2.8-2.8-0.7-6.3-1-10.5-1-4.2 0-7.1 0.3-9.6 1-2.5 0.7-4.5 1.5-6 2.6-1.5 1.1-2.5 2.2-3.1 3.5-0.6 1.3-0.9 2.5-0.9 3.7 0 1.2 0.3 2.8 0.8 3.8 0.5 1.1 1.4 2 2.5 2.9 1.1 0.8 2.6 1.5 4.3 2 1.7 0.5 3.8 1 6.2 1.4l17.9 2.9c3.8 0.7 7.2 1.5 10.1 2.5 2.9 1 5.4 2.3 7.4 3.9 2 1.5 3.5 3.4 4.5 5.5 1 2.1 1.5 4.7 1.5 7.5z"/>
				<path class="s0" d="m791.2 25.7v61.2h-13.4v-61.2h-30.7v-9.7h74.8v9.7h-30.8z"/>
				<path class="s0" d="m834.7 86.9v-70.9h64.1v9.7h-50.9v20.3h46.2v9.7h-46.2v21.4h51.2v9.7h-64.4z"/>
				<path class="s0" d="m988 38.9q0 3.7-1.2 6.6c-0.8 1.9-1.9 3.6-3.2 5-1.4 1.4-3 2.6-4.9 3.6-1.9 1-3.9 1.8-6.1 2.4 1.4 0.6 2.6 1.2 3.6 1.9 1 0.7 1.9 1.4 2.6 2.3 0.7 0.9 1.4 1.9 1.9 3 0.5 1.1 1 2.4 1.5 3.8l3.1 9.8c0.6 1.9 1.2 3.6 2 5.3 0.8 1.7 1.6 3.1 2.6 4.2h-14.3q-1.2-1.5-2.1-3.6c-0.6-1.4-1.1-2.9-1.6-4.6l-3.4-10.5c-0.9-2.9-2.6-5.1-5-6.4-2.5-1.3-5.6-2.1-9.4-2.3h-23.4v27.4h-13.3v-70.9h43.9c8.6 0 15.2 1.8 19.8 5.5 4.5 3.6 6.8 8.9 6.8 15.7v1.7zm-13.5-1.9q0-2.4-0.6-4.5c-0.4-1.4-1.2-2.6-2.2-3.7-1-1.1-2.4-1.9-4.2-2.6-1.8-0.6-3.9-0.9-6.6-0.9h-30v24.5h26c5.8 0 10.2-1 13.1-3 3-2 4.5-4.9 4.5-8.8z"/>
			</g>
			<path class="s0" d="m17 50c0-6-3.4-4.5-6-1.4v35.3c0 1.6 1.2 3.1 2.8 3.2 1.6 0.1 3.2-1.3 3.2-3v-34z"/>
			<path class="s0" d="m16.1 49.9l29.5-29.4c0.6-0.6 1.5-0.6 2 0l28.1 29c0.3 0.3 0.4 0.6 0.4 1v18.3c0 0.8-0.6 1.4-1.4 1.4h-42.1c-0.8 0-1.4 0.6-1.4 1.4v3.9c-0.1 0.8 0.5 1.5 1.3 1.5h48.4c0.8 0 1.4-0.6 1.4-1.4v-28c0-0.4-0.2-0.7-0.4-1l-34.3-34.2c-0.6-0.6-1.5-0.6-2 0l-34.1 34.2c-0.3 0.3-0.4 0.6-0.4 1v3.4c0 1.2 1.4 1.9 2.3 1.1l2.6-2.1c0 0 0 0 0.1-0.1z"/>
			<path class="s0" d="m82.3 82v3.7c0 0.7-0.6 1.3-1.3 1.3h-58.6c-0.8 0-1.4-0.6-1.4-1.4v-34.4q0-0.9 0.6-1.5l23.9-23.1c0.6-0.6 1.5-0.6 2.1 0l23.8 23.8c0.4 0.4 0.5 0.8 0.5 1.3l-0.4 13.7c0 0.5-0.4 0.9-1 0.9h-3.9c-0.6 0-1-0.5-1-1l0.2-11.7c0-0.5-0.2-1-0.5-1.3l-18-18c-0.5-0.5-1.2-0.5-1.6 0l-18.2 16.9q-0.6 0.6-0.6 1.5v26.6c0 0.8 0.7 1.5 1.5 1.5l52.4-0.4c0.7 0 1.4 0.6 1.4 1.3z"/>
		</g>
	</g>
</svg>